<svg width="18" height="16" viewBox="0 0 18 16" fill="none" xmlns="http://www.w3.org/2000/svg">
<path fill-rule="evenodd" clip-rule="evenodd" d="M0.75 4.25H3.84375C4.18363 5.57744 5.37974 6.50588 6.75 6.50588C8.12026 6.50588 9.31637 5.57744 9.65625 4.25H17.25C17.6642 4.25 18 3.91421 18 3.5C18 3.08579 17.6642 2.75 17.25 2.75H9.65625C9.31637 1.42256 8.12026 0.494118 6.75 0.494118C5.37974 0.494118 4.18363 1.42256 3.84375 2.75H0.75C0.335786 2.75 0 3.08579 0 3.5C0 3.91421 0.335786 4.25 0.75 4.25ZM6.75 2C7.57843 2 8.25 2.67157 8.25 3.5C8.25 4.32843 7.57843 5 6.75 5C5.92157 5 5.25 4.32843 5.25 3.5C5.25 2.67157 5.92157 2 6.75 2ZM17.25 11.75H15.6562C15.3164 10.4226 14.1203 9.49412 12.75 9.49412C11.3797 9.49412 10.1836 10.4226 9.84375 11.75H0.75C0.335786 11.75 0 12.0858 0 12.5C0 12.9142 0.335786 13.25 0.75 13.25H9.84375C10.1836 14.5774 11.3797 15.5059 12.75 15.5059C14.1203 15.5059 15.3164 14.5774 15.6562 13.25H17.25C17.6642 13.25 18 12.9142 18 12.5C18 12.0858 17.6642 11.75 17.25 11.75ZM12.75 14C11.9216 14 11.25 13.3284 11.25 12.5C11.25 11.6716 11.9216 11 12.75 11C13.5784 11 14.25 11.6716 14.25 12.5C14.25 13.3284 13.5784 14 12.75 14Z" fill="#121417"/>
</svg>
