<svg width="20" height="18" viewBox="0 0 20 18" fill="none" xmlns="http://www.w3.org/2000/svg">
<path fill-rule="evenodd" clip-rule="evenodd" d="M4.5 6.75C4.5 6.33579 4.83579 6 5.25 6H14.25C14.6642 6 15 6.33579 15 6.75C15 7.16421 14.6642 7.5 14.25 7.5H5.25C4.83579 7.5 4.5 7.16421 4.5 6.75ZM5.25 10.5H14.25C14.6642 10.5 15 10.1642 15 9.75C15 9.33579 14.6642 9 14.25 9H5.25C4.83579 9 4.5 9.33579 4.5 9.75C4.5 10.1642 4.83579 10.5 5.25 10.5ZM19.5 2.25V16.5C19.4999 16.7599 19.3652 17.0012 19.144 17.1378C18.9229 17.2743 18.6468 17.2866 18.4144 17.1703L15.75 15.8381L13.0856 17.1703C12.8744 17.276 12.6256 17.276 12.4144 17.1703L9.75 15.8381L7.08562 17.1703C6.87436 17.276 6.62564 17.276 6.41438 17.1703L3.75 15.8381L1.08562 17.1703C0.853196 17.2866 0.577121 17.2743 0.355974 17.1378C0.134828 17.0012 0.00013876 16.7599 0 16.5V2.25C0 1.42157 0.671573 0.75 1.5 0.75H18C18.8284 0.75 19.5 1.42157 19.5 2.25ZM18 2.25H1.5V15.2869L3.41437 14.3288C3.62564 14.223 3.87436 14.223 4.08563 14.3288L6.75 15.6619L9.41438 14.3288C9.62564 14.223 9.87436 14.223 10.0856 14.3288L12.75 15.6619L15.4144 14.3288C15.6256 14.223 15.8744 14.223 16.0856 14.3288L18 15.2869V2.25Z" fill="#6B7582"/>
</svg>
