<svg width="23" height="20" viewBox="0 0 23 20" fill="none" xmlns="http://www.w3.org/2000/svg">
<path fill-rule="evenodd" clip-rule="evenodd" d="M21.7247 18.5H20.25V8C20.25 7.17157 19.5784 6.5 18.75 6.5H14.625C14.4179 6.5 14.25 6.66789 14.25 6.875V18.5H12.75V2.03844C12.755 1.56502 12.5421 1.1156 12.1725 0.819687C11.6626 0.422129 10.9553 0.396059 10.4175 0.755L2.9175 5.75C2.49962 6.0288 2.24905 6.49828 2.25 7.00062V18.5H0.775313C0.373237 18.4941 0.0348589 18.7997 0 19.2003C-0.0137691 19.4077 0.059127 19.6115 0.201299 19.7631C0.343472 19.9147 0.542172 20.0005 0.75 20H21.75C21.9578 20.0005 22.1565 19.9147 22.2987 19.7631C22.4409 19.6115 22.5138 19.4077 22.5 19.2003C22.4651 18.7997 22.1268 18.4941 21.7247 18.5ZM6.375 16.25C6.37546 16.4578 6.28966 16.6565 6.13806 16.7987C5.98647 16.9409 5.78268 17.0138 5.57531 17C5.17434 16.9651 4.86857 16.6262 4.875 16.2237V14.7753C4.86952 14.3734 5.17493 14.0353 5.57531 14C5.78268 13.9862 5.98647 14.0591 6.13806 14.2013C6.28966 14.3435 6.37546 14.5422 6.375 14.75V16.25ZM6.375 11C6.37546 11.2078 6.28966 11.4065 6.13806 11.5487C5.98647 11.6909 5.78268 11.7638 5.57531 11.75C5.17456 11.7147 4.86903 11.376 4.875 10.9738V9.52531C4.86952 9.12341 5.17493 8.7853 5.57531 8.75C5.78268 8.73623 5.98647 8.80913 6.13806 8.9513C6.28966 9.09347 6.37546 9.29217 6.375 9.5V11ZM10.125 16.25C10.1255 16.4578 10.0397 16.6565 9.88806 16.7987C9.73647 16.9409 9.53268 17.0138 9.32531 17C8.92507 16.9652 8.61956 16.6273 8.625 16.2256V14.7753C8.62002 14.3738 8.92529 14.0362 9.32531 14.0009C9.53268 13.9872 9.73647 14.0601 9.88806 14.2022C10.0397 14.3444 10.1255 14.5431 10.125 14.7509V16.25ZM10.125 11C10.1255 11.2078 10.0397 11.4065 9.88806 11.5487C9.73647 11.6909 9.53268 11.7638 9.32531 11.75C8.92529 11.7147 8.62002 11.3772 8.625 10.9756V9.52531C8.62002 9.12377 8.92529 8.78621 9.32531 8.75094C9.53268 8.73717 9.73647 8.81007 9.88806 8.95224C10.0397 9.09441 10.1255 9.29311 10.125 9.50094V11Z" fill="#6B7582"/>
</svg>
