<svg width="22" height="22" viewBox="0 0 22 22" fill="none" xmlns="http://www.w3.org/2000/svg">
<path fill-rule="evenodd" clip-rule="evenodd" d="M20.5306 19.4694L15.8365 14.7763C18.6629 11.383 18.3204 6.36694 15.0591 3.38935C11.7978 0.411765 6.77132 0.526001 3.64865 3.64867C0.525978 6.77134 0.411742 11.7978 3.38933 15.0591C6.36691 18.3204 11.383 18.6629 14.7762 15.8366L19.4694 20.5306C19.7624 20.8237 20.2375 20.8237 20.5306 20.5306C20.8237 20.2376 20.8237 19.7624 20.5306 19.4694V19.4694ZM2.74998 9.5C2.74998 5.77208 5.77206 2.75 9.49998 2.75C13.2279 2.75 16.25 5.77208 16.25 9.5C16.25 13.2279 13.2279 16.25 9.49998 16.25C5.77377 16.2459 2.75411 13.2262 2.74998 9.5V9.5Z" fill="#6B7582" stroke="black"/>
</svg>
