<svg width="25" height="24" viewBox="0 0 25 24" fill="none" xmlns="http://www.w3.org/2000/svg">
<path d="M16.5 17L21.5 12M21.5 12L16.5 7M21.5 12H9.5M12.5 17C12.5 17.2956 12.5 17.4434 12.489 17.5714C12.3748 18.902 11.3949 19.9968 10.085 20.2573C9.95903 20.2823 9.81202 20.2987 9.51835 20.3313L8.49694 20.4448C6.96248 20.6153 6.19521 20.7005 5.58566 20.5055C4.77293 20.2454 4.10942 19.6515 3.76118 18.8725C3.5 18.2882 3.5 17.5162 3.5 15.9723V8.0277C3.5 6.48377 3.5 5.7118 3.76118 5.12752C4.10942 4.34848 4.77293 3.7546 5.58566 3.49453C6.19521 3.29947 6.96246 3.38472 8.49694 3.55522L9.51835 3.66871C9.81212 3.70135 9.95901 3.71767 10.085 3.74273C11.3949 4.00316 12.3748 5.09804 12.489 6.42861C12.5 6.55663 12.5 6.70442 12.5 7" stroke="#D92D20" stroke-width="1.5" stroke-linecap="round" stroke-linejoin="round"/>
</svg>
