<svg width="25" height="24" viewBox="0 0 25 24" fill="none" xmlns="http://www.w3.org/2000/svg">
<path d="M18.5001 15.8369C19.956 16.5683 21.2042 17.742 22.1153 19.2096C22.2957 19.5003 22.386 19.6456 22.4172 19.8468C22.4805 20.2558 22.2009 20.7585 21.82 20.9204C21.6326 21 21.4218 21 21.0001 21M16.5001 11.5322C17.9818 10.7959 19.0001 9.26686 19.0001 7.5C19.0001 5.73314 17.9818 4.20411 16.5001 3.46776M14.5001 7.5C14.5001 9.98528 12.4854 12 10.0001 12C7.5148 12 5.50008 9.98528 5.50008 7.5C5.50008 5.01472 7.5148 3 10.0001 3C12.4854 3 14.5001 5.01472 14.5001 7.5ZM3.05931 18.9383C4.65362 16.5446 7.16945 15 10.0001 15C12.8307 15 15.3465 16.5446 16.9409 18.9383C17.2901 19.4628 17.4648 19.725 17.4446 20.0599C17.429 20.3207 17.258 20.64 17.0496 20.7976C16.782 21 16.4139 21 15.6777 21H4.32244C3.58625 21 3.21816 21 2.95052 20.7976C2.74213 20.64 2.57117 20.3207 2.55551 20.0599C2.53541 19.725 2.71004 19.4628 3.05931 18.9383Z" stroke="black" stroke-width="1.5" stroke-linecap="round" stroke-linejoin="round"/>
</svg>
